<svg id="图层_1" data-name="图层 1" xmlns="http://www.w3.org/2000/svg" xmlns:xlink="http://www.w3.org/1999/xlink" viewBox="0 0 32.3 38"><defs><style>.cls-1{fill:url(#未命名的渐变_4);}.cls-2{fill:url(#未命名的渐变_4-2);}.cls-3{fill:url(#未命名的渐变_4-3);}.cls-4{fill:url(#未命名的渐变_4-4);}.cls-5{fill:url(#未命名的渐变_4-5);}.cls-6{fill:url(#未命名的渐变_4-6);}.cls-7{font-size:12px;fill:#fff;font-family:PingFangSC-Regular-GBpc-EUC-H, PingFang SC;}</style><linearGradient id="未命名的渐变_4" x1="8.41" y1="40.02" x2="29.44" y2="3.59" gradientUnits="userSpaceOnUse"><stop offset="0" stop-color="#52c7fc"/><stop offset="1" stop-color="#6b94f4"/></linearGradient><linearGradient id="未命名的渐变_4-2" x1="30.58" y1="6.51" x2="26.13" y2="10.96" xlink:href="#未命名的渐变_4"/><linearGradient id="未命名的渐变_4-3" x1="10.55" y1="41.26" x2="31.58" y2="4.83" xlink:href="#未命名的渐变_4"/><linearGradient id="未命名的渐变_4-4" x1="30.6" y1="6.53" x2="26.15" y2="10.98" xlink:href="#未命名的渐变_4"/><linearGradient id="未命名的渐变_4-5" x1="4.13" y1="37.56" x2="25.17" y2="1.13" xlink:href="#未命名的渐变_4"/><linearGradient id="未命名的渐变_4-6" x1="25.18" y1="1.12" x2="20.73" y2="5.56" xlink:href="#未命名的渐变_4"/></defs><title>简历</title><path class="cls-1" d="M36.15,12.4c0-.05,0-.1,0-.14h0a.79.79,0,0,0-.21-.39l0,0h0l0,.06a.74.74,0,0,0-.51-.2H27.79A2.3,2.3,0,0,1,25.5,9.39V1.76a.72.72,0,0,0-.25-.56.59.59,0,0,0-.18-.13.83.83,0,0,1,.18.13h0a.57.57,0,0,0-.18-.12.05.05,0,0,0,0,0L25,1H24.9l-.15,0H7.65a3.81,3.81,0,0,0-3.8,3.8V35.2A3.81,3.81,0,0,0,7.65,39H32c2,0,4.18-1.56,4.18-3.8V12.4Z" transform="translate(-3.85 -1)"/><path class="cls-2" d="M25.51,9.36a2.28,2.28,0,0,0,2.28,2.27h7.6a.81.81,0,0,1,.5.19L25.28,1.22s0,0,0,0a.77.77,0,0,1,.25.56Z" transform="translate(-3.85 -1)"/><path class="cls-3" d="M25.5,1.76V9.39a2.3,2.3,0,0,0,2.29,2.29h7.64a.74.74,0,0,1,.51.2l0-.06a.81.81,0,0,0-.5-.19h-7.6a2.28,2.28,0,0,1-2.28-2.27V1.76a.77.77,0,0,0-.25-.56h0A.72.72,0,0,1,25.5,1.76Z" transform="translate(-3.85 -1)"/><path class="cls-4" d="M25.5,1.76V9.39a2.3,2.3,0,0,0,2.29,2.29h7.64a.74.74,0,0,1,.51.2l0-.06a.81.81,0,0,0-.5-.19h-7.6a2.28,2.28,0,0,1-2.28-2.27V1.76a.77.77,0,0,0-.25-.56h0A.72.72,0,0,1,25.5,1.76Z" transform="translate(-3.85 -1)"/><path class="cls-5" d="M25.07,1.07a.59.59,0,0,1,.18.13A.83.83,0,0,0,25.07,1.07Z" transform="translate(-3.85 -1)"/><path class="cls-6" d="M25.07,1.07a.59.59,0,0,1,.18.13A.83.83,0,0,0,25.07,1.07Z" transform="translate(-3.85 -1)"/><text class="cls-7" transform="translate(2.07 34.67)">R</text></svg>